<svg
    width="31.909266"
    height="31.909267"
    viewBox="0 0 8.4426599 8.4426604"
    version="1.1"
    id="svg22786"
    xml:space="preserve"
    xmlns="http://www.w3.org/2000/svg"
    xmlns:svg="http://www.w3.org/2000/svg"><defs
    id="defs22783" /><g
    id="layer1"
    transform="translate(-93.509245,-123.29985)"><g
    style="fill:none"
    id="g23302"
    transform="matrix(1.1428571,0,0,1.1428571,92.271768,122.06237)"><g
    id="g25235"><rect
    x="1.3143032"
    y="1.3143032"
    width="6.9243069"
    height="6.9243069"
    rx="3.4621532"
    fill="#1275b1"
    id="rect23322"
    style="fill:none;stroke:#1275b1;stroke-width:0.463021;stroke-dasharray:none;stroke-opacity:1" /><path
    d="m 3.9492377,3.2232586 c 0,0.2318386 -0.2009654,0.4197801 -0.4488422,0.4197801 -0.2478913,0 -0.448842,-0.1879415 -0.448842,-0.4197801 0,-0.2318385 0.2009507,-0.4197801 0.448842,-0.4197801 0.2478768,0 0.4488422,0.1879416 0.4488422,0.4197801 z"
    fill="#ffffff"
    id="path23319"
    style="fill:#1275b1;fill-opacity:1;stroke:none;stroke-width:0.248075" /><path
    d="m 3.1129322,3.9515946 h 0.7672415 v 2.324934 H 3.1129322 Z"
    fill="#ffffff"
    id="path23316"
    style="fill:#1275b1;fill-opacity:1;stroke:none;stroke-width:0.248075" /><path
    d="M 5.1154383,3.9515946 H 4.3481919 v 2.324934 h 0.7672464 c 0,0 0,-0.7319206 0,-1.1895446 0,-0.2746933 0.093797,-0.5505777 0.4680185,-0.5505777 0.4229183,0 0.4203879,0.359461 0.4184034,0.6379501 -0.00259,0.3640001 0.00357,0.7354924 0.00357,1.1021722 H 6.7726776 V 5.0494752 C 6.7661773,4.2659799 6.5620125,3.9049565 5.8903492,3.9049565 c -0.3988798,0 -0.6461361,0.1810946 -0.774912,0.3449234 z"
    fill="#ffffff"
    id="path23313"
    style="fill:#1275b1;fill-opacity:1;stroke:none;stroke-width:0.248075" /></g></g></g>
</svg>